<svg xmlns="http://www.w3.org/2000/svg" version="1.1" xmlns:xlink="http://www.w3.org/1999/xlink" xmlns:svgjs="http://svgjs.dev/svgjs" width="308" height="231" viewBox="0 0 2000 1500"><circle   cx="1000" cy="1000" r="1000" fill="#000428"></circle><g transform="matrix(0.75,0,0,0.75,249.06244024233047,29.833603238866374)"><svg viewBox="0 0 257 247" data-background-color="#000428" preserveAspectRatio="xMidYMid meet" height="1922" width="2000" xmlns="http://www.w3.org/2000/svg" xmlns:xlink="http://www.w3.org/1999/xlink"><g id="tight-bounds" transform="matrix(1,0,0,1,0.16063523848072236,-0.09999999999999432)"><svg viewBox="0 0 256.67872952303856 247.2" height="247.2" width="256.67872952303856"><g><svg viewBox="0 0 256.67872952303856 247.2" height="247.2" width="256.67872952303856"><g><svg viewBox="0 0 256.67872952303856 247.2" height="247.2" width="256.67872952303856"><g id="textblocktransform"><svg viewBox="0 0 256.67872952303856 247.2" height="247.2" width="256.67872952303856" id="textblock"><g><svg viewBox="0 0 256.67872952303856 247.2" height="247.2" width="256.67872952303856"><g transform="matrix(1,0,0,1,0,0)"><svg width="256.67872952303856" viewBox="-0.8500000000000001 -42.84 48.6 46.84" height="247.2" data-palette-color="#bf61ff"><g class="wordmark-text-0" data-fill-palette-color="primary" id="text-0"><path d="M23.44-8.59L23.44 0 3.15 0 3.15-8.59 7.06-8.59 7.06-30.25 3.15-30.25 3.15-38.84 28.1-38.84Q34.16-38.84 37-36.4 39.84-33.96 39.84-28.3L39.84-28.3Q39.84-24.51 37.72-22.46 35.6-20.41 31.69-19.7L31.69-19.7Q35.21-19.14 36.76-17.07 38.31-14.99 38.31-11.89L38.31-11.89 38.31-8.74 43.75-8.74 43.75 0 35.89 0Q33.37 0 31.84-0.18 30.3-0.37 29.41-1.06 28.52-1.76 27.93-3.25L27.93-3.25Q27.05-5.49 27.05-10.74L27.05-10.74Q27.05-13.75 26.07-15.2 25.1-16.65 22.51-16.65L22.51-16.65 19.56-16.65 19.56-8.59 23.44-8.59ZM23.39-30.25L19.56-30.25 19.56-22.19 22.9-22.19Q25.56-22.19 26.86-23.14 28.15-24.1 28.15-26.49L28.15-26.49Q28.15-28.25 26.82-29.25 25.49-30.25 23.39-30.25L23.39-30.25Z" fill="#bf61ff" data-fill-palette-color="primary"></path></g></svg></g></svg></g></svg></g></svg></g></svg></g><defs></defs></svg><circle   cx="1000" cy="1000" r="1000" fill="#000428"></circle></g></svg></g></svg><svg xmlns="http://www.w3.org/2000/svg" version="1.1" xmlns:xlink="http://www.w3.org/1999/xlink" xmlns:svgjs="http://svgjs.dev/svgjs" width="308" height="231" viewBox="0 0 2000 1600"><circle   cx="1010" cy="800" r="1000" fill="#000428"></circle><g transform="matrix(0.75,0,0,0.75,249.06244024233047,29.833603238866374)"><svg viewBox="0 0 257 247" data-background-color="#000428" preserveAspectRatio="xMidYMid meet" height="1922" width="2000" xmlns="http://www.w3.org/2000/svg" xmlns:xlink="http://www.w3.org/1999/xlink"><g id="tight-bounds" transform="matrix(1,0,0,1,0.16063523848072236,-0.09999999999999432)"><svg viewBox="0 0 256.67872952303856 247.2" height="247.2" width="256.67872952303856"><g><svg viewBox="0 0 256.67872952303856 247.2" height="247.2" width="256.67872952303856"><g><svg viewBox="0 0 256.67872952303856 247.2" height="247.2" width="256.67872952303856"><g id="textblocktransform"><svg viewBox="0 0 256.67872952303856 247.2" height="247.2" width="256.67872952303856" id="textblock"><g><svg viewBox="0 0 256.67872952303856 247.2" height="247.2" width="256.67872952303856"><g transform="matrix(1,0,0,1,0,0)"><svg width="256.67872952303856" viewBox="-0.8500000000000001 -42.84 48.6 46.84" height="247.2" data-palette-color="#bf61ff"><g class="wordmark-text-0" data-fill-palette-color="primary" id="text-0"><path d="M23.44-8.59L23.44 0 3.15 0 3.15-8.59 7.06-8.59 7.06-30.25 3.15-30.25 3.15-38.84 28.1-38.84Q34.16-38.84 37-36.4 39.84-33.96 39.84-28.3L39.84-28.3Q39.84-24.51 37.72-22.46 35.6-20.41 31.69-19.7L31.69-19.7Q35.21-19.14 36.76-17.07 38.31-14.99 38.31-11.89L38.31-11.89 38.31-8.74 43.75-8.74 43.75 0 35.89 0Q33.37 0 31.84-0.18 30.3-0.37 29.41-1.06 28.52-1.76 27.93-3.25L27.93-3.25Q27.05-5.49 27.05-10.74L27.05-10.74Q27.05-13.75 26.07-15.2 25.1-16.65 22.51-16.65L22.51-16.65 19.56-16.65 19.56-8.59 23.44-8.59ZM23.39-30.25L19.56-30.25 19.56-22.19 22.9-22.19Q25.56-22.19 26.86-23.14 28.15-24.1 28.15-26.49L28.15-26.49Q28.15-28.25 26.82-29.25 25.49-30.25 23.39-30.25L23.39-30.25Z" fill="#bf61ff" data-fill-palette-color="primary"></path></g></svg></g></svg></g></svg></g></svg></g></svg></g><defs></defs></svg><circle   cx="1050" cy="800" r="1010" fill="#000428"></circle></g></svg></g></svg>