<svg xmlns="http://www.w3.org/2000/svg" version="1.1" xmlns:xlink="http://www.w3.org/1999/xlink" xmlns:svgjs="http://svgjs.dev/svgjs" width="308" height="400" viewBox="0 0 2000 1500"><circle   cx="1000" cy="800" r="1000" fill="#f6efd1"></circle><g transform="matrix(0.75,0,0,0.75,249.090909090909,282.7536437246963)"><svg viewBox="0 0 396 247" data-background-color="#f6efd1" preserveAspectRatio="xMidYMid meet" height="1247" width="2000" xmlns="http://www.w3.org/2000/svg" xmlns:xlink="http://www.w3.org/1999/xlink"><g id="tight-bounds" transform="matrix(1,0,0,1,0.2400000000000091,-0.09999999999999432)"><svg viewBox="0 0 395.52 247.2" height="247.2" width="395.52"><g><svg></svg></g><g><svg viewBox="0 0 395.52 247.2" height="247.2" width="395.52"><g transform="matrix(1,0,0,1,118.44627257738108,47.215199999999996)"><svg viewBox="0 0 158.62745484523782 152.7696" height="152.7696" width="158.62745484523782"><g><svg viewBox="0 0 158.62745484523782 152.7696" height="152.7696" width="158.62745484523782"><g><svg viewBox="0 0 158.62745484523782 152.7696" height="152.7696" width="158.62745484523782"><g><svg viewBox="0 0 158.62745484523782 152.7696" height="152.7696" width="158.62745484523782"><g id="textblocktransform"><svg viewBox="0 0 158.62745484523782 152.7696" height="152.7696" width="158.62745484523782" id="textblock"><g><svg viewBox="0 0 158.62745484523782 152.7696" height="152.7696" width="158.62745484523782"><g transform="matrix(1,0,0,1,0,0)"><svg width="158.62745484523782" viewBox="-0.8500000000000001 -42.84 48.6 46.84" height="152.7696" data-palette-color="#672109"><path d="M23.44-8.59L23.44 0 3.15 0 3.15-8.59 7.06-8.59 7.06-30.25 3.15-30.25 3.15-38.84 28.1-38.84Q34.16-38.84 37-36.4 39.84-33.96 39.84-28.3L39.84-28.3Q39.84-24.51 37.72-22.46 35.6-20.41 31.69-19.7L31.69-19.7Q35.21-19.14 36.76-17.07 38.31-14.99 38.31-11.89L38.31-11.89 38.31-8.74 43.75-8.74 43.75 0 35.89 0Q33.37 0 31.84-0.18 30.3-0.37 29.41-1.06 28.52-1.76 27.93-3.25L27.93-3.25Q27.05-5.49 27.05-10.74L27.05-10.74Q27.05-13.75 26.07-15.2 25.1-16.65 22.51-16.65L22.51-16.65 19.56-16.65 19.56-8.59 23.44-8.59ZM23.39-30.25L19.56-30.25 19.56-22.19 22.9-22.19Q25.56-22.19 26.86-23.14 28.15-24.1 28.15-26.49L28.15-26.49Q28.15-28.25 26.82-29.25 25.49-30.25 23.39-30.25L23.39-30.25Z" opacity="1" transform="matrix(1,0,0,1,0,0)" fill="#672109" class="wordmark-text-0" data-fill-palette-color="primary" id="text-0"></path></svg></g></svg></g></svg></g></svg></g></svg></g></svg></g></svg></g><g><path d="M202.914 0c31.905 0 60.987 12.089 82.915 31.936l-8.977 0c-20.212-16.324-45.934-26.099-73.938-26.099-28.005 0-53.726 9.775-73.939 26.099l-8.976 0c21.928-19.847 51.01-31.936 82.915-31.936zM326.514 123.6c0 17.599-3.678 34.338-10.308 49.492v-17.241c2.912-10.249 4.471-21.068 4.471-32.251 0-11.183-1.559-22.002-4.471-32.251l0-17.241c6.629 15.154 10.307 31.894 10.308 49.492zM202.914 247.2c-31.905 0-60.987-12.089-82.915-31.936h8.976c20.212 16.324 45.934 26.099 73.939 26.099 28.005 0 53.726-9.775 73.938-26.099l8.977 0c-21.928 19.847-51.01 31.936-82.915 31.936z" fill="#672109" stroke="transparent" data-fill-palette-color="tertiary"></path></g></svg></g><defs></defs></svg><rect width="395.52" height="247.2" fill="none" stroke="none" visibility="hidden"></rect></g></svg></g></svg>